<?xml version="1.0" standalone="no"?>
<!DOCTYPE svg PUBLIC "-//W3C//DTD SVG 20010904//EN"
 "http://www.w3.org/TR/2001/REC-SVG-20010904/DTD/svg10.dtd">
<svg version="1.0" xmlns="http://www.w3.org/2000/svg"
 width="199.000000pt" height="128.000000pt" viewBox="0 0 199.000000 128.000000"
 preserveAspectRatio="xMidYMid meet">

<g transform="translate(0.000000,128.000000) scale(0.100000,-0.100000)"
fill="#000000" stroke="none">
<path d="M835 1140 c-303 -27 -563 -133 -708 -289 -118 -128 -144 -269 -74
-410 51 -103 210 -237 362 -303 90 -40 222 -75 347 -94 218 -32 542 -7 737 57
74 24 202 86 259 124 69 47 152 138 184 203 27 55 32 74 31 140 -1 117 -38
195 -140 298 -126 125 -357 227 -603 263 -98 15 -294 20 -395 11z m385 -51
c323 -44 583 -186 672 -368 32 -66 32 -188 -1 -251 -34 -65 -84 -123 -149
-173 -318 -245 -970 -283 -1377 -80 -204 102 -312 242 -303 393 5 88 37 149
123 235 201 202 618 300 1035 244z"/>
<path d="M805 1084 c-340 -51 -569 -157 -673 -313 -193 -290 96 -582 656 -662
122 -17 401 -6 526 21 335 72 547 223 587 418 10 48 9 66 -5 116 -23 78 -52
122 -126 189 -104 94 -266 167 -462 208 -79 17 -145 22 -288 24 -102 2 -198 1
-215 -1z m-72 -147 c-17 -11 -78 -10 -158 2 -53 7 -46 8 57 7 67 0 110 -4 101
-9z m-226 -3 c-3 -3 -12 -4 -19 -1 -8 3 -5 6 6 6 11 1 17 -2 13 -5z m90 -53
c-20 -22 -44 -55 -53 -73 -49 -96 -115 -160 -179 -173 -26 -6 -25 -4 10 13 46
22 87 65 135 137 30 45 108 135 118 135 2 0 -12 -18 -31 -39z m925 -5 c6 -27
20 -49 46 -71 47 -40 82 -110 82 -162 l0 -39 -160 0 c-159 1 -160 1 -160 23 0
13 5 22 10 20 6 -1 19 23 30 53 23 66 23 63 8 54 -7 -4 11 18 40 50 30 34 52
67 52 80 0 53 41 46 52 -8z m-1129 -21 c-3 -9 -8 -14 -10 -11 -3 3 -2 9 2 15
9 16 15 13 8 -4z m125 -20 c-21 -19 -43 -35 -50 -35 -7 0 1 8 17 18 17 11 36
26 44 35 7 10 16 17 20 17 3 0 -11 -16 -31 -35z m39 -58 c-7 -20 -15 -37 -19
-37 -8 0 -2 22 15 57 15 33 17 23 4 -20z m-120 17 c-3 -3 -12 -4 -19 -1 -8 3
-5 6 6 6 11 1 17 -2 13 -5z m23 -28 c0 -2 -7 -7 -16 -10 -8 -3 -12 -2 -9 4 6
10 25 14 25 6z m237 -10 c-3 -8 -1 -16 6 -19 8 -2 1 -18 -18 -43 -16 -21 -29
-43 -27 -47 1 -5 -2 -6 -8 -2 -11 7 1 37 28 68 27 30 3 32 -30 1 l-32 -29 34
42 c35 42 57 55 47 29z m83 -46 c-26 -26 -40 -47 -36 -56 3 -9 1 -12 -4 -9 -6
3 -10 17 -10 30 0 26 42 62 88 74 2 1 -16 -17 -38 -39z m325 32 c-6 -5 -32
-26 -60 -47 l-50 -38 50 46 c28 26 54 46 60 47 6 0 6 -3 0 -8z m45 -7 c-33
-19 -49 -19 -24 0 10 8 26 14 34 14 9 0 4 -6 -10 -14z m60 -24 c-30 -27 -41
-44 -37 -56 4 -9 3 -14 -3 -10 -6 3 -10 13 -10 22 0 13 -3 13 -17 2 -10 -7 -5
1 11 18 23 26 78 62 95 63 2 0 -16 -18 -39 -39z m-635 -12 c-41 -45 -40 -60 2
-35 l28 17 -24 -20 c-32 -29 -55 -28 -47 2 4 12 8 28 10 35 1 7 6 11 10 10 4
-2 12 5 17 15 6 9 17 17 26 17 10 0 4 -13 -22 -41z m355 24 c0 -9 5 -11 13 -7
7 4 9 3 4 -2 -5 -5 -10 -8 -12 -7 -2 1 -20 -14 -40 -34 -20 -20 -39 -33 -42
-29 -4 3 8 22 26 40 18 19 31 38 28 43 -4 6 0 10 8 10 8 0 15 -7 15 -14z m90
6 c0 -6 -13 -23 -28 -37 -16 -15 -31 -34 -35 -42 -4 -12 -6 -11 -6 4 -1 10 11
33 27 51 28 35 42 43 42 24z m239 -20 c-24 -15 -30 -10 -11 9 9 10 19 14 21 9
2 -5 -3 -13 -10 -18z m-429 1 c-24 -15 -36 -11 -14 4 10 8 21 12 24 10 2 -3
-2 -9 -10 -14z m60 17 c0 -2 -10 -12 -22 -23 l-23 -19 19 23 c18 21 26 27 26
19z m199 -34 c-21 -26 -53 -52 -64 -53 -5 0 8 16 30 35 45 38 54 43 34 18z
m191 4 c0 -2 -10 -12 -22 -23 l-23 -19 19 23 c18 21 26 27 26 19z m-1000 -27
c0 -5 -7 -10 -15 -10 -8 0 -15 5 -15 10 0 6 7 10 15 10 8 0 15 -4 15 -10z
m430 6 c0 -2 -8 -10 -17 -17 -16 -13 -17 -12 -4 4 13 16 21 21 21 13z m110
-11 c-7 -8 -17 -15 -23 -15 -6 0 -2 7 9 15 25 19 30 19 14 0z m294 -1 c3 -8 2
-12 -4 -9 -6 3 -10 1 -10 -5 0 -6 -4 -9 -10 -5 -10 6 -2 35 10 35 4 0 11 -7
14 -16z m-839 -32 c-3 -3 -11 0 -18 7 -9 10 -8 11 6 5 10 -3 15 -9 12 -12z
m1505 -92 c0 -7 -272 -10 -795 -10 -523 0 -795 3 -795 10 0 7 272 10 795 10
523 0 795 -3 795 -10z m-1384 -72 c4 -7 3 -8 -5 -4 -6 4 -20 4 -32 1 -33 -11
-22 -58 16 -66 27 -6 27 -7 5 -8 -49 -2 -71 38 -40 69 22 22 45 26 56 8z m34
-39 c0 -21 -4 -39 -10 -39 -5 0 -10 21 -10 46 0 27 4 43 10 39 6 -3 10 -24 10
-46z m982 -1 c2 -21 0 -38 -4 -38 -4 0 -8 21 -7 48 1 52 6 48 11 -10z m-140 2
c2 -23 -1 -40 -7 -40 -5 0 -10 18 -10 40 0 22 3 40 6 40 4 0 9 -18 11 -40z
m-278 -39 c-7 -10 -24 13 -24 33 0 37 15 40 20 4 3 -18 5 -35 4 -37z m320 30
c1 -17 -1 -31 -6 -31 -4 0 -8 17 -8 37 0 43 11 38 14 -6z m-852 -1 c3 -16 1
-30 -3 -30 -4 0 -9 14 -11 30 -3 17 -1 30 3 30 4 0 9 -13 11 -30z m68 15 c10
-12 10 -18 0 -30 -25 -30 -61 -7 -46 30 3 8 12 15 19 15 8 0 20 -7 27 -15z
m60 5 c0 -5 -7 -7 -15 -4 -10 4 -15 0 -15 -14 0 -11 8 -23 18 -25 16 -4 16 -5
-1 -6 -20 -1 -32 21 -23 44 6 16 36 21 36 5z m60 -5 c17 -20 5 -45 -20 -45
-11 0 -23 7 -26 15 -6 15 11 45 26 45 4 0 13 -7 20 -15z m60 4 c0 -5 -4 -7
-10 -4 -6 4 -10 -5 -10 -19 0 -14 -3 -26 -7 -26 -5 0 -8 14 -8 30 0 22 5 30
18 30 9 0 17 -5 17 -11z m54 -4 c3 -8 1 -15 -4 -15 -6 0 -10 5 -10 10 0 6 -4
10 -10 10 -17 0 -11 -38 8 -43 16 -4 16 -5 -1 -6 -20 -1 -32 21 -23 44 3 8 12
15 20 15 7 0 16 -7 20 -15z m73 -2 c4 -10 -2 -23 -18 -36 -13 -11 -23 -24 -21
-28 1 -5 -2 -9 -8 -9 -5 0 -10 19 -10 43 0 38 2 43 25 45 16 1 28 -4 32 -15z
m63 1 c11 -12 10 -18 -3 -31 -20 -21 -47 -10 -46 19 l0 23 9 -22 c5 -13 14
-23 20 -23 14 0 13 37 -2 43 -8 4 -9 6 -2 6 6 1 17 -6 24 -15z m41 7 c-11 -7
-10 -11 5 -19 15 -8 16 -13 7 -21 -7 -6 -11 -8 -8 -5 3 4 -3 12 -12 19 -17 13
-10 35 10 35 8 0 7 -3 -2 -9z m114 -2 c4 -6 4 -13 0 -17 -4 -4 -10 -1 -12 6
-7 19 -23 14 -23 -7 0 -11 8 -22 18 -24 16 -4 16 -5 -1 -6 -20 -1 -32 21 -23
44 6 17 32 20 41 4z m55 1 c0 -5 -4 -10 -10 -10 -5 0 -10 -9 -10 -20 0 -32
-15 -23 -16 10 -1 23 3 30 17 30 11 0 19 -4 19 -10z m30 -26 c0 -13 -4 -24 -9
-24 -5 0 -9 13 -9 30 1 35 18 30 18 -6z m58 3 c3 -21 -1 -27 -17 -27 -22 0
-36 16 -22 24 5 4 11 0 14 -6 2 -7 7 -10 11 -7 10 10 -5 40 -17 32 -6 -3 -7
-1 -3 6 12 19 31 7 34 -22z m180 0 c3 -21 -1 -27 -17 -27 -22 0 -36 16 -22 24
5 4 11 1 13 -6 3 -9 6 -9 11 -1 4 6 0 19 -10 28 -16 16 -15 17 3 13 12 -2 20
-13 22 -31z m69 -14 c-3 -10 -5 -2 -5 17 0 19 2 27 5 18 2 -10 2 -26 0 -35z
m65 17 c4 -26 1 -30 -19 -30 -14 0 -23 6 -23 15 0 8 5 15 11 15 5 0 7 -4 4
-10 -3 -5 -1 -10 4 -10 6 0 11 9 11 21 0 15 -5 19 -16 15 -8 -3 -12 -2 -9 4
12 20 33 9 37 -20z m38 0 c0 -16 -3 -30 -7 -30 -5 0 -8 14 -8 30 0 17 3 30 8
30 4 0 7 -13 7 -30z m34 14 c9 -23 7 -44 -3 -44 -5 0 -11 14 -13 30 -5 32 6
41 16 14z m60 0 c12 -31 6 -44 -19 -44 -16 0 -25 6 -25 15 0 8 5 15 11 15 5 0
7 -4 4 -10 -3 -5 -1 -10 4 -10 15 0 14 37 -1 43 -8 4 -7 6 3 6 9 1 20 -6 23
-15z m-540 -289 c3 -8 1 -15 -4 -15 -6 0 -10 7 -10 15 0 8 2 15 4 15 2 0 6 -7
10 -15z m23 -7 c-3 -8 -6 -5 -6 6 -1 11 2 17 5 13 3 -3 4 -12 1 -19z"/>
<path d="M1432 796 c-17 -19 -34 -32 -38 -28 -4 4 -4 2 -1 -4 3 -6 0 -28 -8
-50 -22 -61 -20 -64 33 -64 l49 0 2 73 c1 39 4 80 7 90 9 27 -11 20 -44 -17z"/>
<path d="M1495 820 c-4 -6 -9 -47 -12 -91 l-6 -79 55 0 55 0 -8 45 c-10 53
-29 93 -57 118 -14 13 -22 15 -27 7z"/>
<path d="M1566 764 c13 -26 26 -61 30 -79 4 -21 13 -35 25 -38 37 -10 17 57
-39 131 -35 46 -43 40 -16 -14z"/>
<path d="M490 420 c0 -11 7 -20 15 -20 8 0 15 9 15 20 0 11 -7 20 -15 20 -8 0
-15 -9 -15 -20z"/>
<path d="M614 429 c-10 -17 13 -36 27 -22 12 12 4 33 -11 33 -5 0 -12 -5 -16
-11z"/>
<path d="M797 425 c-8 -18 11 -31 25 -17 11 11 3 32 -12 32 -4 0 -10 -7 -13
-15z"/>
</g>
</svg>
